<?xml version="1.0" encoding="UTF-8"?>
<svg id="Layer_1" xmlns="http://www.w3.org/2000/svg" version="1.1" viewBox="0 0 700 760">
  <!-- Generator: Adobe Illustrator 30.4.0, SVG Export Plug-In . SVG Version: 2.1.4 Build 226)  -->
  <defs>
    <style>
      .st0 {
        fill: #0400a0;
      }
    </style>
  </defs>
  <g>
    <path class="st0" d="M365,591.5c-.4,0-.8-.16-1.09-.47-10.49-11.11-29.59-19.71-49.82-28.81-12.24-5.51-24.9-11.21-36.83-17.92-46.69-27.63-81.49-68.7-100.67-118.77-19.23-48.65-19.37-97.92-16.09-130.69.08-.82.82-1.43,1.64-1.34.82.08,1.43.82,1.34,1.64-3.24,32.43-3.12,81.19,15.9,129.3,18.94,49.45,53.3,89.99,99.37,117.26,11.78,6.63,24.38,12.3,36.56,17.78,20.5,9.23,39.87,17.94,50.77,29.48.57.6.54,1.55-.06,2.12-.29.27-.66.41-1.03.41Z"/>
    <path class="st0" d="M162,327c-11-18-10-36,5-56,4,20-2,41-5,56ZM161,363c-16-10-25-25-24-39,16,7,23,22,24,39ZM162,364c0-20,5-36,18-45,4,16-8,35-18,45ZM173,405c-18-9-31-20-36-36,18,3,32,20,36,36ZM173,403c-4-19,1-37,12-47,7,16-4,38-12,47ZM189,445c-21-3-37-14-45-28,20-1,38,14,45,28ZM188,443c-12-18-11-35-5-48,13,11,13,32,5,48ZM217,488c-23,3-42-7-53-20,21-4,42,5,53,20ZM215,486c-17-15-19-33-15-46,15,10,22,31,15,46ZM254,524c-22,8-42,2-58-9,20-10,42-2,58,9ZM252,522c-22-9-30-25-30-40,18,6,29,24,30,40ZM295,553c-21,11-44,7-59-2,18-11,42-7,59,2ZM291,550c-20-5-36-20-37-34,18,3,32,19,37,34Z"/>
  </g>
  <g>
    <path class="st0" d="M335,591.5c-.37,0-.74-.14-1.03-.41-.6-.57-.63-1.52-.06-2.12,10.9-11.54,30.26-20.25,50.77-29.48,12.18-5.48,24.78-11.15,36.59-17.79,46.04-27.25,80.4-67.79,99.33-117.23,19.02-48.12,19.15-96.88,15.91-129.31-.08-.82.52-1.56,1.34-1.64.82-.08,1.56.52,1.64,1.34,3.28,32.76,3.14,82.03-16.1,130.7-19.17,50.06-53.97,91.12-100.63,118.74-11.96,6.73-24.61,12.42-36.86,17.93-20.22,9.1-39.33,17.7-49.82,28.81-.29.31-.69.47-1.09.47Z"/>
    <path class="st0" d="M538,327c11-18,10-36-5-56-4,20,2,41,5,56ZM539,363c16-10,25-25,24-39-16,7-23,22-24,39ZM538,364c0-20-5-36-18-45-4,16,8,35,18,45ZM527,405c18-9,31-20,36-36-18,3-32,20-36,36ZM527,403c4-19-1-37-12-47-7,16,4,38,12,47ZM512,445c21-3,37-14,45-28-20-1-38,14-45,28ZM513,443c12-18,11-35,5-48-13,11-13,32-5,48ZM485,485c23,3,42-7,53-20-21-4-42,5-53,20ZM487,483c17-15,19-33,15-46-15,10-22,31-15,46ZM450,521c22,8,42,2,58-9-20-10-42-2-58,9ZM452,519c22-9,30-25,30-40-18,6-29,24-30,40ZM405,553c21,11,44,7,59-2-18-11-42-7-59,2ZM409,550c20-5,36-20,37-34-18,3-32,19-37,34Z"/>
  </g>
  <path class="st0" d="M350,532.71l-2.12-1.32c-50.79-31.67-83.18-59.53-105.02-90.33-23.78-33.53-34.86-70.73-34.86-117.06v-162.74l4.67.8c41.45,7.08,101.96-7.83,134.88-33.22l2.44-1.88,2.44,1.88c32.92,25.4,93.43,40.3,134.88,33.22l4.67-.8v162.74c0,46.33-11.08,83.53-34.86,117.06-21.85,30.8-54.23,58.66-105.02,90.33l-2.12,1.32ZM216,170.64v153.36c0,83.75,36.37,137.95,134,199.28,97.63-61.34,134-115.53,134-199.28v-153.36c-19.85,2.58-43.84.84-68.18-5-25.66-6.16-48.89-16.28-65.82-28.64-16.93,12.36-40.15,22.48-65.82,28.64-24.34,5.84-48.33,7.59-68.18,5Z"/>
  <path class="st0" d="M350,514.19l-.54-.35c-45.32-29.32-75.55-56.1-95.15-84.27-21.36-30.69-31.3-64.24-31.3-105.57v-146.16l1.15.17c35.59,5.23,89.45-9.31,125.29-33.84l.56-.39.56.39c35.84,24.52,89.7,39.07,125.29,33.84l1.15-.17v146.16c0,41.33-9.95,74.88-31.3,105.57-19.6,28.17-49.84,54.95-95.15,84.27l-.54.35ZM225,180.15v143.85c0,40.9,9.83,74.09,30.95,104.43,19.37,27.84,49.27,54.34,94.05,83.38,44.79-29.04,74.68-55.54,94.05-83.38,21.11-30.34,30.95-63.52,30.95-104.43v-143.85c-35.84,4.8-89.18-9.66-125-33.94-35.83,24.28-89.16,38.74-125,33.94Z"/>
  <path class="st0" d="M275.36,226v39.78h22.12c5.74,0,9.58-.87,11.5-2.6,2.57-2.28,4.01-6.28,4.31-12.02h2.75v35.03h-2.75c-.69-4.9-1.39-8.04-2.08-9.43-.89-1.73-2.35-3.09-4.38-4.08-2.03-.99-5.15-1.48-9.35-1.48h-22.12v33.18c0,4.45.2,7.16.59,8.13.4.97,1.09,1.73,2.08,2.3.99.57,2.87.85,5.64.85h17.07c5.69,0,9.82-.4,12.39-1.19,2.57-.79,5.05-2.35,7.42-4.68,3.07-3.07,6.21-7.69,9.43-13.88h2.97l-8.68,25.24h-77.56v-2.75h3.56c2.37,0,4.63-.57,6.75-1.71,1.58-.79,2.66-1.98,3.23-3.56.57-1.58.85-4.82.85-9.72v-65.39c0-6.38-.64-10.32-1.93-11.8-1.78-1.98-4.75-2.97-8.91-2.97h-3.56v-2.75h77.56l1.11,22.04h-2.89c-1.04-5.29-2.19-8.93-3.45-10.91-1.26-1.98-3.13-3.49-5.6-4.53-1.98-.74-5.47-1.11-10.47-1.11h-27.61Z"/>
  <path class="st0" d="M378.24,256.27h16.41v1.45c-2.27.18-3.94.68-5.02,1.5-1.08.82-2.77,3.3-5.06,7.44s-4.87,8.01-7.74,11.6c2.32,2.71,4.39,4.6,6.21,5.68,1.82,1.08,3.66,1.62,5.51,1.62s3.32-.49,4.57-1.47c1.25-.98,2.14-2.42,2.66-4.32l1.45,1.05c-.96,3.67-2.51,6.38-4.65,8.13-2.14,1.74-4.62,2.62-7.46,2.62-2.13,0-4.3-.58-6.5-1.74-2.2-1.16-4.6-3.12-7.21-5.88-3.23,2.86-6.14,4.85-8.73,5.96-2.59,1.11-5.36,1.66-8.3,1.66-4.3,0-7.71-1.15-10.23-3.44-2.53-2.29-3.79-5.03-3.79-8.2s1.13-6.3,3.4-9.43c2.27-3.14,6.52-6.39,12.77-9.75-1.22-2.71-2.06-4.93-2.5-6.66-.44-1.73-.66-3.39-.66-4.98,0-4.45,1.64-7.85,4.92-10.2,2.55-1.82,5.46-2.73,8.71-2.73s5.62.92,7.58,2.75c1.95,1.84,2.93,4.1,2.93,6.78s-.94,5.18-2.83,7.27c-1.89,2.08-5.23,4.36-10.02,6.84,3.31,5.89,6.76,11.28,10.35,16.17,4.58-5.47,6.87-10.08,6.87-13.83,0-1.2-.39-2.27-1.17-3.2-.57-.7-1.39-1.12-2.46-1.25v-1.45ZM363.32,257.29c3.23-1.54,5.64-3.28,7.25-5.23,1.6-1.95,2.4-4.13,2.4-6.52,0-1.88-.58-3.42-1.74-4.65-1.16-1.22-2.6-1.84-4.32-1.84-2.27,0-3.98.79-5.14,2.36-1.16,1.58-1.74,3.12-1.74,4.63,0,1.28.22,2.7.66,4.28.44,1.58,1.32,3.9,2.62,6.97ZM369.37,281.7c-3.44-4.69-5.82-8.11-7.15-10.27-1.33-2.16-2.79-4.84-4.37-8.05-3.13,1.8-5.48,3.78-7.05,5.94-1.58,2.16-2.36,4.51-2.36,7.03,0,2.79.9,5.24,2.69,7.34,1.8,2.11,4.22,3.16,7.27,3.16,1.64,0,3.22-.33,4.75-.98,1.52-.65,3.6-2.04,6.23-4.18Z"/>
  <path class="st0" d="M411.88,223.25v-2.75h43.12v2.75h-3.64c-4.11,0-7.1,1.21-8.98,3.64-1.19,1.58-1.78,5.39-1.78,11.43v49.21c0,7.57-.83,13.71-2.49,18.41-1.66,4.7-4.52,8.79-8.57,12.28-4.06,3.49-8.96,5.23-14.7,5.23-4.65,0-8.31-1.15-10.99-3.45-2.67-2.3-4.01-4.94-4.01-7.9,0-2.42.62-4.26,1.85-5.49,1.63-1.53,3.54-2.3,5.72-2.3,1.58,0,3.01.52,4.27,1.56,1.26,1.04,2.86,3.81,4.79,8.31,1.14,2.67,2.6,4.01,4.38,4.01,1.34,0,2.58-.82,3.75-2.45,1.16-1.63,1.75-4.53,1.75-8.68v-68.73c0-5.1-.32-8.46-.97-10.09-.49-1.24-1.53-2.3-3.12-3.19-2.13-1.19-4.38-1.78-6.75-1.78h-3.64Z"/>
  <path class="st0" d="M289.22,388.5l5.8-2.83h.58v20.13c0,1.34.06,2.17.17,2.5.11.33.34.58.69.76.35.18,1.07.28,2.14.3v.65h-8.96v-.65c1.12-.02,1.85-.12,2.18-.29.33-.17.56-.4.69-.69.13-.29.19-1.15.19-2.58v-12.87c0-1.73-.06-2.85-.18-3.34-.08-.38-.23-.65-.45-.83-.22-.18-.48-.26-.78-.26-.43,0-1.04.18-1.81.55l-.26-.55ZM307.22,388.5l5.8-2.83h.58v20.13c0,1.34.06,2.17.17,2.5.11.33.34.58.69.76.35.18,1.07.28,2.14.3v.65h-8.96v-.65c1.12-.02,1.85-.12,2.18-.29.33-.17.56-.4.69-.69.13-.29.19-1.15.19-2.58v-12.87c0-1.73-.06-2.85-.18-3.34-.08-.38-.23-.65-.45-.83-.22-.18-.48-.26-.78-.26-.43,0-1.04.18-1.81.55l-.26-.55ZM322.46,400.6h9.09v2.65h-9.09v-2.65ZM337.21,388.5l5.8-2.83h.58v20.13c0,1.34.06,2.17.17,2.5.11.33.34.58.69.76.35.18,1.07.28,2.15.3v.65h-8.97v-.65c1.12-.02,1.85-.12,2.18-.29.33-.17.56-.4.69-.69.13-.29.19-1.15.19-2.58v-12.87c0-1.73-.06-2.85-.18-3.34-.08-.38-.23-.65-.45-.83-.22-.18-.48-.26-.78-.26-.43,0-1.04.18-1.81.55l-.26-.55ZM367.74,401.21v2.5h-3.2v6.29h-2.9v-6.29h-10.09v-2.25l11.06-15.78h1.93v15.54h3.2ZM361.64,401.21v-11.83l-8.37,11.83h8.37ZM370.45,400.6h9.09v2.65h-9.09v-2.65ZM397.48,405.41l-1.67,4.59h-14.06v-.65c4.14-3.77,7.05-6.86,8.74-9.25,1.69-2.39,2.53-4.58,2.53-6.56,0-1.51-.46-2.75-1.39-3.73s-2.03-1.46-3.32-1.46c-1.17,0-2.22.34-3.16,1.03-.93.69-1.62,1.69-2.07,3.01h-.65c.29-2.17,1.05-3.83,2.26-4.99,1.21-1.16,2.73-1.74,4.54-1.74,1.93,0,3.55.62,4.84,1.86,1.29,1.24,1.94,2.71,1.94,4.4,0,1.21-.28,2.41-.84,3.62-.87,1.9-2.27,3.91-4.22,6.03-2.92,3.19-4.74,5.11-5.47,5.77h6.22c1.27,0,2.15-.05,2.66-.14.51-.09.97-.28,1.38-.57.41-.29.77-.69,1.07-1.22h.65ZM415.11,385.67v.65c-1.55.15-2.81.46-3.79.92-.98.46-1.95,1.17-2.9,2.12-.96.95-1.75,2.01-2.37,3.17-.63,1.17-1.15,2.55-1.57,4.16,1.69-1.16,3.38-1.74,5.08-1.74s3.04.66,4.24,1.97c1.2,1.31,1.79,3,1.79,5.06s-.6,3.81-1.81,5.45c-1.45,1.99-3.37,2.99-5.76,2.99-1.63,0-3.01-.54-4.15-1.62-2.23-2.1-3.34-4.82-3.34-8.16,0-2.13.43-4.16,1.28-6.08.86-1.92,2.08-3.63,3.67-5.11,1.59-1.49,3.11-2.49,4.56-3.01,1.45-.52,2.81-.77,4.06-.77h1.02ZM404.18,397.98c-.21,1.58-.32,2.86-.32,3.83,0,1.12.21,2.35.62,3.66.42,1.32,1.03,2.36,1.86,3.14.6.55,1.32.83,2.18.83,1.02,0,1.93-.48,2.73-1.44.8-.96,1.2-2.33,1.2-4.11,0-2-.4-3.74-1.19-5.2-.8-1.47-1.93-2.2-3.39-2.2-.45,0-.92.09-1.43.28-.51.19-1.26.59-2.26,1.21Z"/>
  <path class="st0" d="M350,352l5,5-5,5-5-5,5-5ZM340,355c-2,1.33-2,2.67,0,4l-50-1-8,2-3-3,3-3,8,2,50-1ZM360,355c2,1.33,2,2.67,0,4l50-1,8,2,3-3-3-3-8,2-50-1Z"/>
  <path class="st0" d="M350,461c-6-6-7-13,0-20,7,7,6,14,0,20ZM345,459c-9,0-15-5-16-11,9,1,14,5,16,11ZM355,459c9,0,15-5,16-11-9,1-14,5-16,11Z"/>
  <circle class="st0" cx="350" cy="469" r="1.7"/>
</svg>